<svg xmlns="http://www.w3.org/2000/svg" width="22" height="24" viewBox="0 0 22 24">
    <path fill="#0C66FF" fill-rule="nonzero" d="M19.556 2.4h-5.11a3.675 3.675 0 0 0-6.893 0H2.444C1.1 2.4 0 3.48 0 4.8v16.8C0 22.92 1.1 24 2.444 24h17.112C20.9 24 22 22.92 22 21.6V4.8c0-1.32-1.1-2.4-2.444-2.4zM11 2.4c.672 0 1.222.54 1.222 1.2 0 .66-.55 1.2-1.222 1.2-.672 0-1.222-.54-1.222-1.2 0-.66.55-1.2 1.222-1.2zm0 4.8c2.029 0 3.667 1.608 3.667 3.6S13.029 14.4 11 14.4s-3.667-1.608-3.667-3.6S8.971 7.2 11 7.2zm7.333 14.4H3.667v-1.68c0-2.4 4.889-3.72 7.333-3.72s7.333 1.32 7.333 3.72v1.68z"/>
</svg>
