<svg xmlns="http://www.w3.org/2000/svg" width="63" height="62" viewBox="0 0 63 62">
    <g fill="none" fill-rule="evenodd" stroke-width="2">
        <path stroke="#353535" d="M30.174 25.783H8.957v15M5.509 61h52.556C60.238 61 62 59.267 62 57.129V25.783H43.435"/>
        <path stroke="#353535" d="M8.957 35.839H20.89v8.204H8.957V57.13c-.04 2.154-1.831 3.878-4.022 3.871C2.762 61 1 59.267 1 57.129V19.261h8.513l2.197 2.609h2.55M18.24 25.664V6.217C18.24 3.336 15.863 1 12.934 1 10.005 1 7.63 3.336 7.63 6.217v1.305h6.63"/>
        <path stroke="#18BF68" stroke-linecap="round" d="M28.848 1c2.93 0 5.304 2.336 5.304 5.217v26.087h-3.979v.816l6.63 6.358 6.631-6.358v-.816h-3.978V4.913c0-2.161-1.78-3.913-3.978-3.913h-6.63"/>
        <path stroke="#353535" d="M54.043 25.664V6.217C54.043 3.336 51.67 1 48.74 1H12.935"/>
    </g>
</svg>
