<svg xmlns="http://www.w3.org/2000/svg" width="62" height="61" viewBox="0 0 62 61">
    <g fill="none" fill-rule="evenodd" stroke-width="2">
        <path stroke="#353535" d="M6.566 1.002h49.175c2.86 0 5.177 2.287 5.177 5.107H1.39c0-2.82 2.317-5.107 5.176-5.107z"/>
        <path stroke="#18BF68" stroke-linecap="round" d="M58.33 44.512V8.662c0-1.41-1.16-2.553-2.589-2.553H6.566c-1.43 0-2.588 1.143-2.588 2.553v20.424"/>
        <path stroke="#353535" d="M18.213 9.936v-3.83M44.095 9.936v-3.83"/>
        <path stroke="#353535" stroke-linecap="round" d="M16.935 30.501v1.256c0-1.428 1.174-2.586 2.621-2.586 1.448 0 2.622 1.157 2.622 2.586v17.67-5.02c0-2.116 1.738-3.83 3.882-3.83h1.335V52a13.59 13.59 0 0 1-2.4 7.722M16.935 31.758a2.597 2.597 0 0 0-1.36-2.246 2.669 2.669 0 0 0-2.651.055 2.594 2.594 0 0 0-1.263 2.301V32.911a2.493 2.493 0 0 0-.909-1.777 2.562 2.562 0 0 0-1.936-.562c-1.35.166-2.358 1.31-2.335 2.653l.043 12.504v-8.43a2.524 2.524 0 0 0-.893-1.939 2.598 2.598 0 0 0-2.077-.586A2.631 2.631 0 0 0 1.39 37.41v22.294M58.453 59.723v-9.216a2.631 2.631 0 0 0-2.165-2.635 2.598 2.598 0 0 0-2.076.586 2.524 2.524 0 0 0-.893 1.94v1.687l.042-3.21c.023-1.342-.984-2.486-2.335-2.652a2.562 2.562 0 0 0-1.936.562 2.493 2.493 0 0 0-.908 1.777v3.523-3.29a2.594 2.594 0 0 0-1.263-2.3 2.669 2.669 0 0 0-2.651-.054 2.597 2.597 0 0 0-1.36 2.245v3.4-10.08a2.682 2.682 0 0 0-1.917-2.608 2.625 2.625 0 0 0-2.285.407 2.55 2.55 0 0 0-1.041 2.048v13.93-5.02c0-2.116-1.738-3.83-3.882-3.83h-1.335v12.79"/>
        <path stroke="#353535" stroke-linecap="round" d="M25.978 34.191h21.999v7.66"/>
        <path stroke="#18BF68" d="M37.624 29.087H26.06"/>
        <g stroke="#18BF68">
            <path d="M9.154 13.766h2.589M14.33 13.766h2.589M19.507 13.766h2.588M24.683 13.766h2.589M29.86 13.766h2.588M35.036 13.766h2.588M40.212 13.766h2.589M45.389 13.766h2.588M50.565 13.766h2.588"/>
        </g>
        <g stroke="#18BF68">
            <path d="M9.154 18.872h2.589M14.33 18.872h2.589M19.507 18.872h2.588M24.683 18.872h2.589M29.86 18.872h2.588M35.036 18.872h2.588M40.212 18.872h2.589M45.389 18.872h2.588M50.565 18.872h2.588"/>
        </g>
        <g stroke="#18BF68">
            <path d="M9.154 23.979h7.765M19.507 23.979h2.588M24.683 23.979h2.589M29.86 23.979h2.588M35.036 23.979h2.588M40.212 23.979h2.589M45.389 23.979h7.764"/>
        </g>
        <path stroke="#18BF68" d="M40.212 29.085h2.589M45.389 29.085h2.588M50.565 29.085h2.588"/>
        <path stroke="#353535" d="M16.919 45.68V32.038"/>
    </g>
</svg>
