<svg xmlns="http://www.w3.org/2000/svg" width="98" height="135" viewBox="0 0 98 135">
    <g fill="#0BB07B" fill-rule="nonzero" opacity=".276">
        <path d="M72 31.912L70.047 30l-7.333 7.176-2.76-2.7L58 36.386 62.714 41z"/>
        <path d="M0 0v135h98V31.68h-2.86v100.454H2.86V2.866h92.28V19.74H98V0z"/>
        <path d="M95 25h3v4h-3zM5 110.29V128h74.358L92 115.836V10.882H62.532c.152-.84.236-1.702.236-2.585V6H34.232v2.297c0 .883.084 1.746.236 2.585H5v94.641h2.854v-91.77h27.45c2.14 5.22 7.247 8.903 13.196 8.903 5.948 0 11.056-3.684 13.195-8.902h27.451v99.793H77.073v7.945h2.854v-5.074h7.338l-9.052 8.71H7.853v-14.837H5zm43.5-90.506c-6.103 0-11.102-4.844-11.4-10.912h22.8c-.299 6.068-5.298 10.912-11.4 10.912z"/>
        <path d="M43 10h13v3H43zM31 43v21h20v-2.747H33.784V43z"/>
        <path d="M40.164 33.016v.001H31v5.23h2.827v-2.354h6.337v16.429h13.123v-16.43h1.222a12.058 12.058 0 0 0 5.114 8.119v17.114h-4.037V64h6.864V45.42c1.174.399 2.428.618 3.732.618C72.7 46.038 78 40.646 78 34.018 78 27.393 72.699 22 66.182 22c-6.184 0-11.27 4.858-11.773 11.017h-1.122v-.001H40.164zm10.296 16.43h-7.468V35.893h7.468v13.553zm15.722-24.57c4.958 0 8.99 4.101 8.99 9.143 0 5.041-4.032 9.143-8.99 9.143-4.957 0-8.99-4.102-8.99-9.143 0-5.042 4.033-9.144 8.99-9.144zM24.782 77.87v-2.872H16V90h14.612V79.509L34 76.03 32.023 74l-7.566 7.767-2.388-2.45-1.977 2.03 4.365 4.48 3.358-3.447v4.749h-9.018v-9.26zM16 111h14.612v-10.49L34 97.03 32.023 95l-7.566 7.767-2.388-2.45-1.977 2.03 4.365 4.48 3.358-3.447v4.749h-9.018v-9.26h5.985V96H16zM40 81h39v3H40zM40 76h39v3H40zM40 101h39v3H40zM40 96h39v3H40z"/>
    </g>
</svg>
