<svg xmlns="http://www.w3.org/2000/svg" width="16" height="16" viewBox="0 0 16 16">
    <g fill="none" fill-rule="evenodd">
        <path d="M-4-4h24v24H-4z"/>
        <path fill="#000" fill-rule="nonzero" d="M11.996 2H5a3 3 0 0 0-3 3v6.996c-1.298-.064-2-.825-2-2.178V2.182C0 .768.768 0 2.182 0h7.636c1.353 0 2.114.702 2.178 2z" opacity=".3"/>
        <path fill="#4A4A4A" fill-rule="nonzero" d="M6.182 4h7.636C15.232 4 16 4.768 16 6.182v7.636C16 15.232 15.232 16 13.818 16H6.182C4.768 16 4 15.232 4 13.818V6.182C4 4.768 4.768 4 6.182 4z"/>
    </g>
</svg>
