<svg xmlns="http://www.w3.org/2000/svg" width="25" height="23" viewBox="0 0 25 23">
    <g fill="none" fill-rule="evenodd">
        <path d="M-3-3h30v30H-3z"/>
        <path fill="#9D9D9D" fill-rule="nonzero" d="M24.5 15.762l.031-.012v5.732a1.25 1.25 0 0 1-2.134.884L19.531 19.5H4.5a3.75 3.75 0 0 1-3.75-3.75V4.5A3.75 3.75 0 0 1 4.5.75h16.25A3.75 3.75 0 0 1 24.5 4.5v11.262z" opacity=".3"/>
        <path fill="#000" fill-rule="nonzero" d="M6.375 12a1.875 1.875 0 1 1 0-3.75 1.875 1.875 0 0 1 0 3.75zm6.25 0a1.875 1.875 0 1 1 0-3.75 1.875 1.875 0 0 1 0 3.75zm6.25 0a1.875 1.875 0 1 1 0-3.75 1.875 1.875 0 0 1 0 3.75z" opacity=".3"/>
    </g>
</svg>
