<svg xmlns="http://www.w3.org/2000/svg" xmlns:xlink="http://www.w3.org/1999/xlink" width="13" height="28" viewBox="0 0 13 28">
    <defs>
        <path id="a" d="M0 .058h12.994V20H0z"/>
        <path id="c" d="M.048.06h6.917v6.912H.048z"/>
    </defs>
    <g fill="none" fill-rule="evenodd">
        <g transform="translate(0 8)">
            <mask id="b" fill="#fff">
                <use xlink:href="#a"/>
            </mask>
            <path fill="#000" d="M3.771 15.686v-3.52c0-.412-.027-.437-.447-.438-.436-.001-.87.006-1.306-.002-.585-.01-.868-.374-.747-.95l1.546-7.333c.007-.03.027-.067.017-.09-.047-.12-.103-.235-.155-.351-.094.086-.246.158-.271.261-.162.67-.299 1.347-.44 2.022-.21.992-.42 1.984-.623 2.977-.065.317-.211.547-.548.596-.294.043-.487-.104-.66-.46-.219-.457-.13-.915-.043-1.383.278-1.469.533-2.942.817-4.41A3.145 3.145 0 0 1 3.971.062C5.607.055 7.244.06 8.881.06c1.673.001 2.916 1.01 3.24 2.667.307 1.58.594 3.165.858 4.753.047.281-.033.6-.113.883-.084.3-.322.461-.643.429-.319-.033-.491-.232-.557-.544-.346-1.637-.695-3.272-1.043-4.908-.01-.04.001-.1-.023-.12-.089-.08-.188-.146-.284-.217-.05.1-.155.21-.14.3.074.463.179.922.276 1.382.43 2.046.864 4.09 1.292 6.136.109.518-.178.885-.706.904-.362.012-.725.004-1.088.003-.805-.003-.71-.032-.711.703-.001 2.2.001 4.401-.002 6.602 0 .154-.009.318-.057.462-.103.303-.324.495-.648.497-1.348.009-2.695.012-4.042.002-.421-.003-.715-.339-.717-.787-.004-1.173-.001-2.347-.001-3.52H3.77z" mask="url(#b)"/>
        </g>
        <g transform="translate(3)">
            <mask id="d" fill="#fff">
                <use xlink:href="#c"/>
            </mask>
            <path fill="#000" d="M3.484 0c1.9.014 3.441 1.558 3.433 3.44a3.48 3.48 0 0 1-3.489 3.472C1.511 6.903-.019 5.314 0 3.35.018 1.504 1.596-.014 3.484 0" mask="url(#d)"/>
        </g>
    </g>
</svg>
