<svg xmlns="http://www.w3.org/2000/svg" width="12" height="28" viewBox="0 0 12 28">
    <g fill="none" fill-rule="evenodd">
        <path fill="#0DB17D" d="M9 2.998C9.008 4.618 7.64 5.994 6.016 6 4.364 6.006 3 4.652 3 3.006 3 1.336 4.324.006 5.993 0A3.003 3.003 0 0 1 9 2.998z"/>
        <path fill="#0BB07B" d="M5.766 27.993c-.703 0-1.358.02-2.01-.007-.517-.02-.874-.468-.876-1.047-.003-1.346 0-2.691 0-4.037V11.81c0-.106.022-.22-.011-.315-.03-.084-.131-.212-.186-.205a.387.387 0 0 0-.255.18c-.045.085-.017.207-.017.313 0 2.204.002 4.407 0 6.61 0 .615-.355 1.082-.904 1.207-.8.182-1.492-.36-1.5-1.203-.013-1.345-.004-2.69-.004-4.036 0-1.176.002-2.352.001-3.528 0-1.644 1.212-2.829 2.904-2.83C4.972 8 7.036 8 9.1 8c1.672 0 2.89 1.154 2.895 2.765.01 2.532.006 5.064.001 7.596-.001.864-.638 1.4-1.454 1.243-.557-.107-.933-.566-.937-1.176-.008-1.112-.004-2.225-.004-3.337v-3.37c0-.094.01-.2-.03-.28-.036-.07-.143-.163-.205-.154-.082.012-.178.1-.217.18-.04.078-.017.186-.017.281-.001 5.054-.001 10.107-.003 15.16 0 .722-.39 1.092-1.135 1.09H6.236v-.383c0-2.648.001-5.297-.003-7.946 0-.185.09-.47-.211-.482-.328-.013-.255.283-.256.48-.003 2.67 0 5.34 0 8.01v.316z"/>
    </g>
</svg>
