<svg xmlns="http://www.w3.org/2000/svg" xmlns:xlink="http://www.w3.org/1999/xlink" width="495" height="317" viewBox="0 0 495 317">
    <defs>
        <path id="a" d="M.415.046h17.332V13H.415z"/>
    </defs>
    <g fill="none" fill-rule="evenodd">
        <path fill="#8487E8" d="M63.188 48.082l-7.179-6.203-7.479-6.021-6.386-3.379-5.108-1.546-6.75 1.546-1.643 1.737-4.378-.73-1.825 2.007 2.19 2.555.182 3.466 1.824.547-.912 2.737-3.284-3.466-5.655 1.642v2.736l1.641 2.372 3.467 1.095c2.007-.73-.365 1.824-.365 1.824s-6.259 2.554-6.23 2.007c.027-.548-2.892 1.824-2.892 1.824v3.467l-1.824 1.642 1.277 2.736 1.824 3.102 3.831 1.459-.547 2.92-7.48 4.561H4.013L0 78.669l4.378-2.126 6.021-.365 10.582-4.31 3.831-1.893.912-5.108 4.38-.548v2.919l7.114.912 4.743 2.555 3.831 5.655 2.555 9.67.547 13.683 1.095 8.21-5.29 9.122-2.92 12.041 2.372 7.846 3.284 4.013 1.46 8.21 2.006 6.933-.547 3.284 3.648 4.378-1.459-5.655-1.642-8.393-.364-5.655 2.736 2.189v4.014l2.92 5.108 4.56 10.217-.912 4.196 3.347 3.649h2.491l2.737 2.919 4.013 1.825 3.65-.913 3.831 4.379h4.925l3.285 5.838 4.925 4.743 3.65 2.007 2.554-2.554 1.824.73 1.277 2.581-1.277 8.001-4.197 5.291.731 4.196-2.007 2.554.912 4.196h1.824l4.014 9.669 4.38 6.021 8.026 4.743 1.278 8.393 1.641 21.71-1.277 7.663 1.277 6.021 2.555 6.75v8.94l3.283 6.568 5.474 5.108h8.027l-6.75-4.379-.912-4.561 2.736-6.202-2.919-4.197 2.554-3.466-.912-5.474 3.284-1.094.912-4.196 4.926-1.642 1.46-4.014-3.83-4.378 6.384 1.459 3.467-6.933 3.831-6.203v-3.831l2.92-3.832 3.465-1.641 4.014-.913 1.46-4.561 2.006-5.656v-5.473l4.744-5.838.912-5.291-1.46-3.466-3.648.365-4.562-3.102-6.385-.182-3.284-3.467-6.75-1.094 1.46-2.919-2.19-5.291-5.29-2.737h-4.562l-4.743-4.926-3.832-2.919-3.283 1.095-2.555-1.46-3.284.912-2.37-3.101-2.19 2.007-4.014-.365-3.832 3.831-3.102-1.277-4.195.912-3.284-1.459-1.46-4.014 1.094-5.838-3.465-.365-4.197-1.642 2.007-3.831 1.824-4.196-1.094-2.372-2.737 1.459-1.825 1.825-3.466 2.554-5.473-.73-2.372-7.48 1.642-5.656 2.737-5.656 2.918-1.641s4.014-1.278 4.014-.73c0 .547 2.92 1.824 2.92 1.824l2.19-2.189 3.283.365 2.92.547 2.553-.182 1.642 2.736-.73 2.919 1.46 3.102.73 1.642 2.19-3.284-1.643-6.933 6.02-7.298 4.744-1.641 4.197-8.21 4.013-3.102 3.65-1.459 1.094-3.102 5.108-2.189 1.46 2.737 4.926-1.643 3.101-2.918-4.379-3.102v-4.379l-1.094-2.189 7.48-.548 6.203-.182s-3.832 4.379-3.832 4.926c0 .547.913 1.46.913 1.46l6.933 2.371-.73-4.561h-3.466l2.553-4.379-.182-6.567-4.378-5.109-1.46-7.298-1.095-2.371-3.83 4.196-3.467-1.277.182-5.656-4.014-4.561-4.743-1.094-1.643 6.202-2.37 2.92 1.277 3.283-1.095 5.109-4.562 1.459-.546 3.832-2.555 2.919-2.372-2.372 1.825-6.75-4.014-1.278-5.839-4.743-2.37.182-.366-8.392 5.11-6.631 8.755-2.856 3.467-4.926 2.555.981 4.014-.981 2.097-6.476-3.42-1.72s-.867 3.088-1.415 3.088l-3.557 2.645-.456-2.28 1.186-2.555-1.369-1.185-1.733 2.736-.456-4.926.182-4.652-1.459-2.463-3.193 2.19-.365 3.101 1.095 2.098-.274 3.011-3.558 2.371-.912-3.193-2.098-.182-.182 1.46-3.558-.913-3.648-1.916-1.095-2.189-2.463.183-1.186 4.105-1.642-2.189-1.46-1.278-5.473-1.094 1.551-1.186-.365-2.098-2.098-1.277-4.744-3.923-4.652-.73-4.743-3.922-5.474.547-2.126 2.007z"/>
        <path fill="#8487E8" d="M127.619 50.728l-4.744 1.824-1.46 4.288v2.645l3.102.73 5.2 2.28s3.466-.365 3.74-.456c.273-.091 1.916 3.01 1.916 3.01l2.919 4.653v2.463l-3.65 2.098-.638 2.189h-3.283l-2.373 1.277.822 1.825 3.557-1.642 1.459 2.189 2.282 3.832 4.56 3.01h1.095l-2.19-4.561 1.643.182 1.55 2.645 2.008-1.732v-2.464l-2.92-3.922 1.55-1.824 2.099 2.189 1.003 2.372 2.555-2.1 1.915-3.283-2.19-.547-3.1-3.831-.731-1.232.275-3.238-5.018-4.743-2.372-3.65-1.185-3.648-3.467-.548-1.46-1.094-3.74 1.277-.73 3.922-1.46-.73.913-3.648 2.646-2.007h-2.098zM84.562 35.95l.365 3.558-2.737.456-2.007 2.736.731 3.467h2.644l5.656-2.737-.729 1.55-1.55 1.187 2.28 1.459-2.373.638.366 1.004 5.291 2.007-.457 1.094-3.193-1.641-2.509.729v1.46l1.69 1.003 1.275 1.369-.364 1.277.73.912 2.828.639h4.47l1.915-1.095 1.824 2.189h2.646l2.007-1.46.912-1.733-2.28-2.006s-1.095-1.46-.822-1.46c.274 0 1.095-.456 1.095-.456l.274-4.926-2.19-1.916-1.185 1.46v2.28l-1.55-1.003-.366-2.92-1.459-.182-3.194-.547.274-1.915-1.095-1.825-2.463-2.645-1.824.639-1.459-2.646h-3.467zM100.16 29.063l-3.625-1.095-2.326 1.436-3.9.48-.684 1.642 2.53 1.368 2.738-.414 1.437 2.056-1.437.341v1.072l2.532 1.392 1.23-.616.616 1.71h-1.573l-.068 1.026 1.436.959 2.258.477 2.326-1.161 2.943 1.162 1.983-1.916-.41-1.916-1.893-.82.525-2.19-2.19.378.069 1.516-.137 1.8-2.668-.136-.753-3.18-2.02-1.677-1.674.753-2.19-2.19 1.573-1.232 1.3 1.575 1.438-.73zM132.522 26.189l7.867-.511 3.626 1.879 4.037-.939 4.241.939 8.827 2.805 1.71 1.163-1.984.955-2.737.277-1.3 1.3-3.626 1.026-2.463 1.71h-6.773v1.095l2.326.821-.615 1.368-3.079.821-1.505 1.164h-1.78l1.575 1.642-.89 1.231-3.603-1.026-8.917-3.011-2.395.821.411 1.985 2.12 1.231 3.97.958 3.145-.548 2.601 2.235-.41 1.528-1.916.685-4.447-1.095-4.72-1.506-1.712.89s-2.12-2.668-2.12-2.873c0-.206.82-3.626.82-3.626l-2.258-.685-1.163-2.463 2.806-.7 1.368 1.932 2.326.547 2.805-.41 2.532-.206-.479-1.163 1.984-.7 1.232 1.726 1.778 1.437h1.642l.07-1.71-1.438.273-1.094-1.026.546-1.163-3.01-.752 1.37-1.574 3.01 1.004.683-.799-1.642-2.671 1.026-.681 1.984 1.163.89 1.471 1.334.65v-1.3l2.976-.615 1.574-1.027-.069-1.574-1.369.069-1.846 1.3-3.148-.685-1.71-.889-1.436.274-1.848-.205-.547-1.711v-1.505l-1.369-.479.206-.547zM111.313 45.961l-1.026 2.258h-1.71l-.48 2.053 1.608 1.436s.513 2.6.582 2.258c.068-.342 2.257-1.232 2.257-1.232s1.505-.889 1.505-1.094c0-.205-.616-3.011-.616-3.011l1.984-.615-.41-2.053h-3.694zM116.307 48.698l-.41 2.03 1.163 1.528h1.3l3.055-1.095 2.417-2.121-3.967-1.46zM109.556 58.253l-2.782 2.053 4.151 1.96V60.26zM114.574 38.869v2.235l-.866 1.87 2.188.775 1.597-1.003.502-2.281-.274-1.596-1.414-.775zM113.708 28.971l1.095.867.319.866-1.414-.182v.775l3.558.456 1.048 1.961 1.072.228.479-2.486-3.603-3.032-2.281-.456z"/>
        <path fill="#8487E8" d="M120.914 32.21l.82 1.094-1.185.639 1.186 1.323s3.375-.707 3.239-.832c-.137-.127-1.141-1.954-1.141-1.954l-1.778-1.32-1.141 1.05zM129.124 25.961l2.873 4.196 2.189 1.596-.32 1.46-1.094 1.22-2.553.832-1.78.228-2.782-3.013 2.509-.407.41-1.14-1.915.228-1.961-.434v-2.394l2.6-.046-.32-1.551zM119.385 42.814l-1.71.935.856 1.46s1.95 1.094 2.017.752c.069-.342.343-2.212.343-2.212l-1.506-.935zM105.43 46.508l-1.302-2.088 1.712-.67 1.641 1.048zM103.377 29.61l.752 1.55s2.623-.091 2.645-.205c.024-.114 1.802-3.261 1.802-3.261l-1.802-.958-2.645.89-.752 1.984zM120.549 73.19c-.342.206-3.694 4.995-3.694 4.995l1.14.484v1.5l1.87-1.095 1.55-1.436.913.752 1.163 1.232 2.12-.205-1.778-2.737v-1.232l-3.284-2.257zM132.408 70.842l.273-2.007 2.007-.502 1.004.958-.867 1.232-1.459.82zM158.794 38.093l-3.147 1.163-4.311.274-2.325.752.615 1.3 1.71 1.642h2.566l1.266.821h-2.395l-1.71.375-2.327-.67.89 1.38 1.71.831 1.984.066-.478.481h-2.531l-.412 1.072 1.027.365 1.026 1.847h1.814l2.428-.753 2.12.878 2.122 1.791.547 3.49 1.3.82.958 3.193v2.28l-1.094 1.095-.137 1.916 1.23.342.89-1.984 1.23 1.984.413 2.121.546 2.531-1.436 2.371-2.053 2.418-1.505 3.831.274 3.832.479 4.378.752 3.421 2.258 3.08h2.258l1.026 2.051 2.395.684v-1.3l2.599-4.105 2.6-4.583 1.3-2.668 3.284-.685 3.42-.684 2.737-3.215 1.916-1.643h3.284l4.036-1.163 3.832-3.078-2.874-.57-2.941-1.072 1.368-1.3 2.942-.66.684 1.891 3.01.616v-2.12l-.752-2.122-3.284-1.299-1.71-2.669 2.188.753.343-1.984 2.463 1.231 2.736.342.685-1.209-2.258-1.117 1.573-1.505 1.505-1.847-.342-1.642-1.984-1.71 1.369-.89 3.215 1.3v-2.053l-.752.07-.821.341-1.3-.958.478-1.095 1.232.48v-.913l-1.437-.935.137-2.212 1.71-1.553h1.506l-.685-2.278 3.01-.935 1.438-1.3 2.052-.593-1.231-1.118-3.831-.205-.685 1.323-3.01-1.254-1.37 2.258-2.667 1.368 1.3-2.737 1.848-1.232-1.574-1.589-.89.358-.342 1.505-2.463.48-1.436.843-.103-.809 1.676-1.027.239-1.129-3.146.855-3.387.445-.958.65-.205-.82 1.984-.925-.308-1.915 3.9 1.06 5.234-.718-1.78-.787.206-1.574-1.745-.99-7.867-.758-1.711-.612-.992.821-1.54-.209-.991.414.855 1.574-3.865-1.129v-1.3l-2.121.441-1.027 1.441 1.985.65.512.65-2.121.273-.068 1.403-1.266-.445-1.3-1.745-1.47-.17-1.3-1.232-1.436.752.888 1.95-2.428-.957-1.505.684-1.027-2.497-4.857-.138-2.771.582-.48 1.95-2.12-.137-1.915.137-2.087.89.548 1.215zM214.28 108.083l3.146-.821.821 1.642-.684 3.9-1.779 2.052-2.942.342-1.642-.753 2.053-3.215-1.505-1.368 1.163-.958 1.368.889zM335.557 27.922l1.095 1.14.32 2.783.73.365.73-1.186 2.416-.958v-1.597l-2.28-1.048h-2.828zM327.622 26.417l-2.92 1.687-.775 2.235.958.639 6.933-.228 3.01-.593-.73-3.329-1.62-.411-1.937 1.368-.456-1.596zM384.908 21.947l1.3 1.71-3.078-.41-1.368 1.231v2.395l3.967 1.71 1.3-1.984 1.711-1.334V22.7l2.052 1.78 2.805-1.164 4.584-.137 2.258-2.394-2.052-.616-2.19.958-3.694-.205-2.737.068-2.052.89-1.78-.343zM389.697 30.978l1.403-2.395 2.976.89v1.026z"/>
        <path fill="#8487E8" d="M262.444 97.136l-3.489.205-1.643 1.095.343 1.231 1.3.206v3.49l-1.3.136-.89-2.326-2.052 2.531.821 3.078-1.027 1.232-1.779.958-.82-1.71-2.258 1.094-3.147 1.984-1.3-.478-2.19-.479 1.027-1.643 1.984-1.163 2.19-1.436 1.436-1.642-.548-3.9 2.258-2.052-.205-1.985-2.6-1.505v-3.626s2.668-2.326 2.873-2.189c.205.137 1.848-1.71 1.848-1.71l.342-3.216 1.916-1.574h1.915l.343.548.068 1.984-3.216 3.626-.547 1.437.547 3.01.48 2.736 2.531.958 3.078-1.573 2.258-.479 3.284 1.573-3.83 1.574zm201.827-63.01l-1.323-.868 2.28-.456.32-3.33-2.189-1.094h-4.15l-1.734.274-1.46-1.14-3.557-.32-5.519-1.514L445.616 24l-3.238.594-5.93 1.504-1.87-.419-1.96 1.286.866 1.368 1.413.73.456 1.916-.683.32-3.102-.594-1.643-1.232-.273.958-4.196 1.323-2.052 1.05-.456 1.368-3.284-1.692.091-2.185-3.147-.502-2.464.547-2.919 2.14-.593 1.235-3.83-.957-2.965.045.592-1.186-1.778-.775-1.87.547.183 2.053-.502 1.46-1.278-.73-.502-2.28-4.606.272-3.01 1.05-.639 2.052 1.323.046.182 1.687-.09 1.688h-2.509l-2.144-.228-.046 1.05.73.774-1.368-.228-1.505.274-1.688-1.596-.456 1.505 1.186 1.642-.41.912-2.373-.593-5.29-1.916-1.734-.09.502-.685 1.186-.912.958-1.55-1.779-.822-2.69.64-2.829-.594-.456 1.231-.547 1.232 1.778.684-.41.273-1.96.548-3.33 1.14-.457-1.186-1.915.228-3.284 1.095-1.734-.684-1.368.501-2.28.183-.365 1.277.227.73-1.413.593-1.825 1.277-.866 1.14-1.232.456 1.505-2.965 3.467-3.603 2.28-1.733-.273-2.554-1.78-.913 1.962-.41-.548-1.596-3.284-1.095-2.326.958-3.558 1.003-1.504.274-1.505-.319-.593-2.509-1.232-.319-.73 2.007-.593 1.961 1.278 1.186 1.231-.456-.365 1.003h-2.235l-1.916.684 1.871 1.642-3.148.548-1.14-.82-4.789 3.51-2.189.64-.775 1.641-1.278 1.004.548 1.87 1.596 1.277-1.232 2.28-.547-2.052-1.368.958-3.1.957-1.233 1.004.638 1.688 1.026 1.391 3.49.752 1.231 2.67-.068 1.503 1.505 1.984-.958.684-1.916-2.12-.41-3.216-3.147-1.163-2.805-1.437-1.23.548.82 1.984-2.12-.547-1.78-1.779-.616.547.547.821-1.026 1.711-.205 1.915 1.78 1.847-.139 1.574.685.89.068 1.3.89.82 2.463-1.094 2.463 1.505.753 1.915 3.01 1.3-1.164.411-2.394-.89-1.3-2.463-1.505-.82-1.3 1.504.752 2.258-.752 1.824-1.026 1.94-4.31.204 1.163-1.163.958.205 1.3-1.186.615-2.918v-1.71l-2.189-2.395-1.026-3.9-1.78-.958.48-3.147-2.12-.82-2.396-.206-.34 2.668.545 2.052-1.916.685-.34 1.094 1.298.958-.41 1.3.274 1.642 1.505-.069 1.71 1.711.616 2.258-2.942-2.053-2.12.07-2.327-1.438-1.095.41-2.53.137-4.653-1.642-3.49-2.395.412-3.626 1.915-4.65 4.037-3.628 3.42-2.326 1.711-.752.205-2.806-2.12.343-.48 1.436-4.789 1.916-3.353 2.258-.958 1.71-1.163.137.137.821.548.616-1.026 2.121-1.164 2.736.274 2.395-2.053.753.753 2.12 2.19.137.752.958 2.805.068 5.816 2.053.683 2.257-1.505-.136-2.53.41-2.806 1.847-1.437.548 1.163-3.284-1.3.615-.958 1.62-3.626 1.391-1.3 2.326v1.437l-2.257-.41-1.369-1.096 1.027-1.299.958.615-.616-1.915-2.258-.137-1.437-.137.343 1.78 1.368 2.256.342 1.506.342 1.368-2.53-1.368h-.686l-.615 1.231-1.505 1.232 1.3 1.71-2.053.958-1.984-1.163-1.369.205 2.053 1.711.753 1.026-2.12.616-2.737-1.71-.548-2.806-2.12-1.368-2.122-2.19 1.916.411 2.394 1.026 4.516 1.095 2.531-1.163.342-2.12-1.984-2.122-5.337-2.463-2.94.273-1.644-1.573-1.846.866-4.379-2.987-3.83 1.095-.822 1.892-1.095-1.824-1.368.274-1.369 1.984-2.667.752-1.916 2.327-1.786 3.831-2.182 4.858-8.21 6.567-.958 4.926 1.095 5.063 2.736.958 4.515-3.83.822 3.83 2.182 4.242-2.525 1.847-1.505-6.226-1.644 1.232.276 1.847-1.848 1.094.411 2.532 1.161 1.916-2.94.958-2.736 2.19-1.027 2.872-5.473 4.242-2.19-1.642 3.901-2.189.273-2.874-2.258-2.394-3.83-5.337 1.504-2.668-2.189-1.984.753-1.779-2.805.821-1.574 1.916v3.01l1.436 2.737 2.053.41-.41 3.216-1.163 1.437-1.3 2.19 2.941.683-2.394 1.163.342 1.026 2.67-.273 1.162 1.573.478 1.37-.753.614-2.463-.479-.615 1.37 1.095.82 2.258 1.094 2.051 2.942v1.574l-1.504 3.557h-6.568l-2.189-.82-2.258 1.162v3.626l-.548 4.037v3.353l.753 1.094 2.258-.41 2.052 1.505-.616 2.463-1.846 1.915-3.42 2.327-.549 3.831v1.984l-2.805 1.71-2.258.48-.958 1.983-1.778 1.574v1.778l-1.779 1.437-.753 2.258-1.573 1.71.41 1.642 1.3.684-.752 1.3.89 2.395-.549 1.78-.136 2.12-1.505 1.094.821 1.642.273 2.737 1.847.89 3.284 4.788 1.232 3.08h1.916l5.61 4.651h1.915l3.284-1.847 2.597.343 2.74.752 2.737-1.505 5.952-1.505 2.19 1.984.957 1.3 4.036-.274 1.916 1.231.547 2.258-1.778 5.61.273 2.326 3.21 2.532 1.305 2.668 1.37 1.231.82 3.147-.616 1.848 1.642 3.01-.479 1.916-2.599 3.763-.685 4.173.205 2.805 1.78 1.711.341 1.915.958 1.437.958 5.131.89 3.08v2.257l1.505 1.573 1.026 3.763 1.573 1.368v1.574l-.616.89.616 1.641v1.095l3.353 1.642 1.642-1.094 2.736-.41 4.995-.412 3.078-2.394 3.558-3.147 1.78-3.216 1.914-1.573.343-3.969 3.694-1.915 1.163-3.626-.889-4.037 2.052-3.078 3.08-2.669 3.146-.957 1.916-2.258-.548-1.232.548-2.668v-3.694l-1.848-3.626.274-3.01-.684-1.643 1.368-2.737 2.053-3.899 1.437-.342 1.094-2.053 8.142-7.457 2.805-4.105v-2.189l1.78-3.147.477-3.216-.889-.753-2.942 1.163-2.326.07-.889.957-1.642.068-1.71.89-1.779-.548-1.163-2.052.615-1.163-1.437-1.3-4.925-3.558-1.643-3.968-2.052-1.437L285.09 170l-3.01-3.352.752-.822s-3.148-3.215-3.353-3.215c-.205 0-.684-1.71-.684-1.71l-1.369-1.027-1.504-3.762.821-.753 1.163 2.19.821 1.846 1.094 1.437.068-2.873.48-.958.342 2.6 1.436.957 1.437 2.67 1.437 1.23.547 1.437 1.984.89 1.574 4.652.273.821 2.258.684 3.49 6.362-.206 1.848 1.026 1.642.07.958 1.094 1.368 1.641.068 1.916-1.094 4.721-1.505 1.163-1.232 3.9-.616 1.162-2.189 3.421-.82v-1.506l1.848-.274v-1.368l1.505-.616.478-2.326 1.095.137v-1.232l1.233-.957v-2.395l-2.874-2.258-2.532-.205-1.163-4.174-1.642 1.985-1.026 2.326s-3.695.821-3.9.684c-.205-.137-3.01-3.763-3.01-3.763l-2.736-4.105-1.369-1.916 2.257-1.573 1.37.48 1.641 3.146s.684 1.368.615 1.163c-.068-.205 1.163-.684 1.163-.684l2.943 2.121 1.641-.342 2.463-1.026.89 1.094.478 1.163s3.353 1.163 3.558 1.163c.205 0 5.474-.479 5.474-.479l4.926-.41.958 1.368 1.71.821.547.753 1.232-.069v1.095l2.531.273-1.573 1.574 1.573 1.163.821 1.3 2.327-.41 1.368-2.805.341 2.19-.546 3.283 4.378 9.031.821 1.094.821 3.695 1.505 1.573.478 1.437v1.095l1.917 2.463 1.436-.548v-1.505l2.806-2.463-.753-1.778.753-2.395-.343-2.189.343-4.516 2.052-.478 1.37-2.19 2.803-3.42 2.668-2.327-.41-1.23 1.573-1.712 1.78 1.163 2.873-1.095 1.642 1.027v1.642l3.078 2.942 1.574 1.915v2.942l.753 1.3 2.462-1.642.343-1.505 1.232 1.642.82 3.9 1.437 2.257.342.684-.753.958.753 1.643V191.55l1.505.48 2.463 3.693v2.737l.958 2.874 2.6 2.052 1.711 1.095.752-.684-1.369-3.49-.068-3.078-2.12-2.255-2.532-2.877-1.847-3.694-.206-2.463.48-2.463-.48-1.916.89-1.3.753.821.341 1.506s1.505.341 1.505.136c0-.205 1.78 1.3 1.78 1.3l.41 1.78 1.436.615 1.027 1.163v1.915l.89.89 2.12-1.71.48-1.643 2.052-.684 1.573-1.163v-3.352l-.615-3.968-2.943-3.01-1.3-.479-.958-1.779-1.573-2.053.205-2.463 1.505-.889.89-1.984 2.6-.616.616 1.437.205 2.463-.822 1.3.822 1.847 1.711.48.888-2.532-.958-1.095-.82-1.916 1.3-2.052 6.5-2.6 2.941-3.01 2.463-5.132v-2.326l1.437-2.12v-3.353l-2.052-.068.957-2.532-1.847-2.258-1.437-.889s-2.737-3.01-2.873-3.284c-.137-.274-.205-2.53-.205-2.53l1.641-2.259 1.711-.479.205-1.573-2.189.342-1.3-.548-.685 1.642-2.736-.273-.82-1.232-1.506-1.916.616-1.026 1.368.616.342-1.23.821-.754 1.163-2.053 1.642-.547-.205 1.3-.41 1.437 1.094 1.368 1.164-1.368 2.256-.684 1.78.342-.137 1.368.205 1.916 1.916.821 1.437.615v1.3l.341 1.916.411 2.052 1.026.958 2.394-1.026 1.163-2.258v-2.736l-3.283-3.148-1.984-1.778-.205-1.574 1.505-1.642-.137-1.71.342-2.12.821-.754-.548-.684.616-1.23 1.232 1.23 2.668-.684 1.505-4.105.48-4.584v-1.847l1.231-3.968-2.668-7.389.068-2.805-1.574-1.095-.684-1.984-2.942-2.12-1.915.068.41 1.505-1.3.342-2.53-1.71-2.259.273 1.505-2.258.958-2.53 1.026-3.485.89-6.802 2.805-1.345h3.626l1.984-.752.547-1.916h2.531l1.78 1.437 3.01-1.437 1.78-1.437-2.19-.342V63.34l.204-3.42s3.284-3.832 3.284-3.627c0 .205.822 3.078.822 3.078l2.051 1.437.822-1.232v-2.12l1.186-.069v-1.414l-1.14-.958.638-1.596 2.371-.273-1.139 1.46.821 2.371.318 2.098-1.687 1.186-.274 5.701-1.87 4.38-1.003.41 1.414 1.915-.638 1.551.547 2.508 4.242 5.702 3.466 5.564 1.094 1.186.183-2.417.456-1.779-1.277-2.463.548-1.278-.229-2.326 1.368-.245.64-1.032-1.415-3.876v-1.55l1.231 1.367.594-.638-1.05-1.597s-.683-.41-.82-.456c-.137-.045-1.187-1.642-1.187-1.642l-.637-1.414-1.14.821-.549-1.14.092-2.098-1.277-4.105 1.323-.73 1.322 1.05.548-3.239.774-.547.457 2.918.913-1.322.273-1.505 2.007-.41 2.053 1.185v-1.733l3.055-8.21 2.144-2.19 1.916.456v-1.824l-2.463-.73-1.14-.5-1.734-2.692h-2.69l3.055-1.916.183-2.919-1.414-2.007.73-1.642.684 1.961 1.595 1.141 1.871-1.186 1.642 1.46 1.642 1.003.456-1.505 1.14 1.414 2.463.136.366-.5-1.734-2.6z"/>
        <path fill="#8487E8" d="M306.686 227.058l-3.558 4.288-2.463 2.462-2.918.548-.73 2.19.638 4.834-2.098 2.007v4.47l1.551 2.097h2.827l1.825-3.739 4.287-9.488-.456-2.006 1.824-1.277v-3.01zM379.39 196.043h2.735l5.747 6.294 2.372 1.733 3.01 3.649 1.825 2.919 1.37 1.095-.457 2.828-.092 2.828-2.737-1.004-2.919-2.737-3.83-7.753-1.55-2.919-1.826-1.551-2.92-3.74zM397.087 218.483l-1.187 1.733 5.474 1.46 8.21 2.19.73-1.369-1.915-.73-1.278-2.007-2.828-.638-3.01.638-2.19-1.277zM414.144 193.033l-2.007 3.648-1.824.548-1.55 3.01-2.737 1.55v2.19l-2.919.457-1.368 1.185.82 1.916 1.733 4.47h2.19l3.831.912 1.095 2.19 1.46-1.642 1.733-4.015v-1.915l2.098-1.824 1.368-.548-2.007-2.28-.547-4.744 1.186-.182 1.368-1.46zM428.557 204.07l-2.463 1.186-4.196-1.186-2.37 2.646-.549 2.827-.912 2.372.548 2.098-.183 3.375c.912.912 1.368.365 1.368.365l1.46-3.284-.456-3.01 1.46 2.372.182 2.645 1.824.456 1.185-1.824-1.276-4.115-3.467-2.635 1.095-2.28h3.102l2.462.09 1.186-2.098zM418.067 169.771l-.456 6.294 2.19 2.919 1.915 3.649 1.596 3.558v2.463l1.688 4.379 4.561 1.942v-1.942l1.003-.822-.547-3.648-1.916-2.737-.182-3.453-2.919-3.206s-3.01-1.369-3.284-1.459c-.274-.092-.912-2.646-.912-2.646v-5.291h-2.737zM437.862 208.54l3.102 2.828-2.098 1.095 1.095 1.368.456 1.916 1.733-.639 3.922 1.733 3.467 2.098v4.926l3.284 3.102 3.922-.638-.912-1.552 3.01-.912 1.095-.638 1.915 2.463v1.824l1.278 2.463 3.831 1.095 1.733-1.733-3.375-2.737-1.368-2.737-1.095-2.69 2.646-.593 4.104.182 2.463-3.375-1.733-.639-1.369 2.19-3.74.866-4.013-1.323-1.095-2.463-5.838-2.462-5.838-4.015-1.824 2.372-2.19 1.551-1.733-2.473.091-3.09h-2.28zM404.11 251.232l-1.003 5.838-.639 4.196v6.295l.64 2.189-1.917 3.375-1.733 1.46 1.277 1.732 2.372.548 4.743-1.551 5.11.73 1.641-2.28 4.834-1.186 1.187 1.003 2.69-1.368 3.421-.183 2.828 2.463.547 3.193v2.372l1.004 1.094 1.095-1.733 3.557-2.828-.638 1.916-1.734 1.916-2.463 2.554.547.912 1.734-.456.821-1.733 1.733-1.733-.82 2.736.272.639.092 2.463-.73 1.733 1.186 1.916 3.102 1.55 3.01-.365 1.186 2.28 2.92-1.915 1.185-.73 2.554.092 2.827-4.38.913-1.823 5.017-4.653 4.835-9.03.82-4.105v-4.835l-1.824-3.284-.182-2.372-1.094-1.642-.639-3.557-2.645-2.92.364-2.736s-.182-2.92-.456-3.102c-.274-.182.365-3.284.365-3.284l-2.189-1.003v-6.568l-1.369-.912-1.003 1.915-1.825 5.383-1.368 5.473-1.004 1.733-1.64.09-2.19-2.553-3.193-3.65 1.277-3.01 2.007-2.371-1.095-1.277-1.55.73-3.285-1.551-4.196.912s-1.733 2.919-1.824 2.645c-.09-.273-1.186 1.55-1.186 1.55l.638 1.735-3.375 1.003.912-2.007-1.459-2.554-2.28 1.55-2.737 2.372v1.642l-1.459-.273-.274 2.645-.639-1.824-.365-1.095-1.64 1.55.272 2.555-1.368 1.277-2.372 1.369-3.102-.092-4.835 2.098-4.196 3.102zM438.41 295.839l2.098 1.55 4.013-.775-1.46 2.327-1.185 2.736-2.554 1.825-.912-.821-.912-2.007 1.095-1.003.18-2.1z"/>
        <g transform="translate(466 303.455)">
            <mask id="b" fill="#fff">
                <use xlink:href="#a"/>
            </mask>
            <path fill="#8487E8" d="M15.192.685L8.898 6.158.415 10.72l.364 1.368L4.611 13l3.831-1.368 7.115-6.75 2.19-2.555L16.38.047z" mask="url(#b)"/>
        </g>
        <path fill="#8487E8" d="M488.49 289.271l.729 4.47-.729 2.463.365 2.007-2.098.729-1.825 2.19.639 1.368.821 1.642-.274 1.368 3.101-2.007.822-1.642 1.916-.912 2.097-2.189v-1.368s-2.097.365-2.097 0-.183-3.467-.183-3.467l-.821-1.003-.73-2.463-.729-2.007-1.004.821zM432.39 108.835l1.275 3.559-1.276 2.005-.913 1.552 2.555 2.098 1.094 3.557v6.113l-2.554 1.642-.547 2.645-3.65.912-1.368 1.368-1.459 2.19.912 1.368-1.55.73.638 2.28 1.642 2.28 1.551-1.276-.183-2.647 2.463-1.276 5.11-2.828 3.465-3.284-1.185-6.295.273-2.189-2.646-3.465-.09-2.007-2.007-1.187.637-1.46 3.285 1.46.091-.912-.912-1.642 3.284-.82V109.381l-1.094.274-1.369 1.46-1.825-.547-2.097-1.734zM422.902 84.936v1.733l.73 1.003.456 2.098 2.098 3.467.912 1.368v2.28l1.551 2.464 1.915 2.736.365 2.555 1.688 2.554.41-2.19-1.824-3.557-1.55-3.923 2.371 1.004-2.007-2.92-3.192-4.47-1.095-2.918-1.642-1.734-.639-1.55z"/>
        <path fill="#DD85CF" d="M161.488 190.124c0 14.246-25.796 40.629-25.796 40.629s-25.797-26.382-25.797-40.63c0-14.246 11.55-25.796 25.797-25.796s25.796 11.55 25.796 25.797"/>
        <path fill="#FFF" d="M153.345 191.099c0 9.75-7.904 17.653-17.653 17.653-9.75 0-17.654-7.903-17.654-17.653s7.904-17.653 17.654-17.653 17.653 7.904 17.653 17.653"/>
        <path fill="#DD85CF" d="M128.128 201.944v-3.02l2.757-2.493c4.66-4.168 6.924-6.563 6.989-9.057 0-1.74-1.051-3.118-3.512-3.118-1.837 0-3.445.92-4.56 1.773l-1.411-3.577c1.607-1.215 4.1-2.198 6.989-2.198 4.824 0 7.482 2.822 7.482 6.694 0 3.577-2.592 6.43-5.676 9.188l-1.97 1.64v.066h8.04v4.102h-15.128z"/>
        <path fill="#7CD3D8" d="M459.55 218.83c0 14.246-25.795 40.628-25.795 40.628s-25.797-26.382-25.797-40.629c0-14.247 11.55-25.796 25.797-25.796s25.796 11.55 25.796 25.796"/>
        <path fill="#FFF" d="M451.407 219.804c0 9.75-7.903 17.653-17.652 17.653-9.75 0-17.654-7.903-17.654-17.653s7.904-17.653 17.654-17.653c9.749 0 17.652 7.903 17.652 17.653"/>
        <path fill="#7CD3D8" d="M427.147 225.71c.834.433 2.747 1.235 4.662 1.235 2.44 0 3.675-1.173 3.675-2.686 0-1.976-1.977-2.871-4.045-2.871h-1.915v-3.366h1.822c1.574-.031 3.582-.618 3.582-2.315 0-1.205-.988-2.101-2.965-2.101-1.636 0-3.365.712-4.199 1.205l-.956-3.396c1.203-.772 3.611-1.513 6.206-1.513 4.291 0 6.67 2.254 6.67 5.002 0 2.13-1.206 3.798-3.676 4.662v.061c2.41.433 4.353 2.254 4.353 4.878 0 3.552-3.117 6.144-8.21 6.144-2.596 0-4.787-.678-5.96-1.419l.956-3.52z"/>
        <path fill="#6366AE" d="M411.733 25.796c0 14.248-25.797 40.63-25.797 40.63s-25.796-26.382-25.796-40.63C360.14 11.55 371.69 0 385.936 0c14.248 0 25.797 11.55 25.797 25.796"/>
        <path fill="#FFF" d="M403.59 26.772c0 9.75-7.903 17.653-17.653 17.653s-17.653-7.903-17.653-17.653 7.904-17.653 17.653-17.653c9.75 0 17.653 7.903 17.653 17.653"/>
        <path fill="#6366AE" d="M384.392 20.537h-.065l-4.069 1.936-.82-3.741 5.643-2.625h4.134v21.33h-4.823z"/>
    </g>
</svg>
